HIERARCHY
ROOT joint_Root
{
	OFFSET 0.0 0.0 0.0
	CHANNELS 6 Xposition Yposition Zposition Zrotation Xrotation Yrotation 
	JOINT Hips
	{
		OFFSET -17.1583 93.1646 452.98
		CHANNELS 6 Xposition Yposition Zposition Zrotation Xrotation Yrotation 
		JOINT Spine
		{
			OFFSET 15.7357 0.0 0.0
			CHANNELS 6 Xposition Yposition Zposition Zrotation Xrotation Yrotation 
			JOINT Chest
			{
				OFFSET 8.98455 -0.406207 0.0
				CHANNELS 6 Xposition Yposition Zposition Zrotation Xrotation Yrotation 
				JOINT Neck
				{
					OFFSET 16.3773 0.0 0.0
					CHANNELS 6 Xposition Yposition Zposition Zrotation Xrotation Yrotation 
					JOINT Head
					{
						OFFSET 6.45672 0.0 0.0
						CHANNELS 6 Xposition Yposition Zposition Zrotation Xrotation Yrotation 
						End Site
						{
							OFFSET 0.0 0.0 0.0
						}
					}
				}
				JOINT Shoulder_L
				{
					OFFSET 12.9942 -0.242716 4.98039
					CHANNELS 6 Xposition Yposition Zposition Zrotation Xrotation Yrotation 
					JOINT UpperArm_L
					{
						OFFSET 5.34809 0.0 0.0
						CHANNELS 6 Xposition Yposition Zposition Zrotation Xrotation Yrotation 
						JOINT LowerArm_L
						{
							OFFSET 24.3286 1.87007e-05 0.0
							CHANNELS 6 Xposition Yposition Zposition Zrotation Xrotation Yrotation 
							JOINT Hand_L
							{
								OFFSET 22.2916 0.0 0.0
								CHANNELS 6 Xposition Yposition Zposition Zrotation Xrotation Yrotation 
								End Site
								{
									OFFSET 0.0 0.0 0.0
								}
							}
						}
					}
				}
				JOINT Shoulder_R
				{
					OFFSET 12.9945 -0.242716 -4.98039
					CHANNELS 6 Xposition Yposition Zposition Zrotation Xrotation Yrotation 
					JOINT UpperArm_R
					{
						OFFSET -5.34813 0.0 0.0
						CHANNELS 6 Xposition Yposition Zposition Zrotation Xrotation Yrotation 
						JOINT LowerArm_R
						{
							OFFSET -24.3289 0.000322201 0.0
							CHANNELS 6 Xposition Yposition Zposition Zrotation Xrotation Yrotation 
							JOINT Hand_R
							{
								OFFSET -22.2915 -0.000108084 0.0
								CHANNELS 6 Xposition Yposition Zposition Zrotation Xrotation Yrotation 
								End Site
								{
									OFFSET 0.0 0.0 0.0
								}
							}
						}
					}
				}
			}
		}
		JOINT UpperLeg_L
		{
			OFFSET -2.19248 -6.46944 0.0
			CHANNELS 6 Xposition Yposition Zposition Zrotation Xrotation Yrotation 
			JOINT LowerLeg_L
			{
				OFFSET 39.0811 0.0 -1.23785e-05
				CHANNELS 6 Xposition Yposition Zposition Zrotation Xrotation Yrotation 
				JOINT Foot_L
				{
					OFFSET 40.9854 0.0 -1.26872e-05
					CHANNELS 6 Xposition Yposition Zposition Zrotation Xrotation Yrotation 
					JOINT Toes_L
					{
						OFFSET 11.7543 0.0 0.0
						CHANNELS 6 Xposition Yposition Zposition Zrotation Xrotation Yrotation 
						End Site
						{
							OFFSET 0.0 0.0 0.0
						}
					}
				}
			}
		}
		JOINT UpperLeg_R
		{
			OFFSET -2.19251 6.46944 0.0
			CHANNELS 6 Xposition Yposition Zposition Zrotation Xrotation Yrotation 
			JOINT LowerLeg_R
			{
				OFFSET -39.0811 -0.00228153 -0.0401928
				CHANNELS 6 Xposition Yposition Zposition Zrotation Xrotation Yrotation 
				JOINT Foot_R
				{
					OFFSET -40.9854 0.0 0.0
					CHANNELS 6 Xposition Yposition Zposition Zrotation Xrotation Yrotation 
					JOINT Toes_R
					{
						OFFSET -11.7543 0.0 0.0
						CHANNELS 6 Xposition Yposition Zposition Zrotation Xrotation Yrotation 
						End Site
						{
							OFFSET 0.0 0.0 0.0
						}
					}
				}
			}
		}
	}
}
MOTION
Frames:	8
Frame Time:	0.0333333
0.000000 0.000000 0.000000 0.000000 0.000000 -0.000000 104.889000 90.151900 228.851000 -78.206500 73.210700 173.243000 15.735700 0.000005 -0.000001 85.457200 85.140100 -83.143100 8.984550 -0.406207 -0.000000 1.945550 -0.886784 4.638990 16.377300 -0.000001 -0.000001 17.826300 17.743300 -3.074430 6.456720 -0.000001 -0.000000 10.504200 28.449100 -2.366170 12.994200 -0.242716 4.980390 -92.703200 6.552860 -67.523400 5.348090 -0.000007 -0.000001 -73.442700 4.577110 3.370550 24.328600 0.000019 0.000005 27.196400 19.548100 -56.929400 22.291600 -0.000001 0.000005 45.348100 4.480510 16.920900 12.994500 -0.242716 -4.980390 89.170100 2.209080 -69.403300 -5.348130 -0.000001 -0.000004 -70.632900 7.078450 2.612640 -24.328900 0.000322 -0.000009 1.225860 6.408280 -10.862200 -22.291500 -0.000108 -0.000004 29.869800 5.392020 -2.679900 -2.192480 -6.469440 -0.000000 170.195000 -0.389034 -5.033530 39.081100 -0.000007 -0.000012 0.328776 -0.650269 26.821900 40.985400 -0.000006 -0.000013 15.722700 4.536420 -71.366600 11.754300 -0.000000 0.000003 -0.000656 0.178016 -9.355970 -2.192510 6.469440 -0.000001 174.825000 -1.082260 158.281000 -39.081100 -0.002282 -0.040193 0.083876 -0.033525 67.448900 -40.985400 0.000008 0.000006 -6.886560 -8.348540 -53.199800 -11.754300 -0.000006 -0.000006 -0.001723 0.192866 -8.748880
0.000000 0.000000 0.000000 0.000000 0.000000 -0.000000 107.925000 90.699600 227.976000 -76.752600 68.892600 171.792000 15.735700 0.000005 -0.000001 77.849500 85.044600 -75.075300 8.984550 -0.406207 -0.000000 1.984180 -2.224520 5.582340 16.377300 -0.000001 -0.000001 16.905700 17.209600 -2.811470 6.456720 -0.000001 -0.000000 9.971030 27.917400 -2.224210 12.994200 -0.242716 4.980390 -92.661400 6.529220 -67.765700 5.348090 -0.000007 -0.000001 -72.137000 4.650690 1.336190 24.328600 0.000019 0.000005 30.261700 16.604500 -63.905400 22.291600 -0.000001 0.000005 45.421300 4.469280 17.104900 12.994500 -0.242716 -4.980390 89.181900 2.135940 -69.037500 -5.348130 -0.000001 -0.000004 -69.377500 3.289940 5.422570 -24.328900 0.000322 -0.000009 1.070990 7.679800 -7.971120 -22.291500 -0.000108 -0.000004 30.066200 5.361570 -1.727710 -2.192480 -6.469440 -0.000000 172.230000 2.031010 -1.698670 39.081100 -0.000007 -0.000012 0.149614 -0.325134 24.710200 40.985400 -0.000006 -0.000013 12.075200 7.631140 -70.611800 11.754300 -0.000000 0.000003 0.001126 0.145825 -10.663000 -2.192510 6.469440 -0.000001 176.123000 -2.583590 156.900000 -39.081100 -0.002282 -0.040193 0.026626 -0.013355 60.313300 -40.985400 0.000008 0.000006 -5.445540 -13.661900 -58.322800 -11.754300 -0.000006 -0.000006 -0.001554 0.190657 -8.838710
0.000000 0.000000 0.000000 0.000000 0.000000 -0.000000 110.850000 91.190400 227.074000 -76.788300 64.200900 171.485000 15.735700 0.000005 -0.000001 70.342800 84.947700 -67.242300 8.984550 -0.406207 -0.000000 1.857000 -3.556740 6.254500 16.377300 -0.000001 -0.000001 15.891200 16.542900 -2.420580 6.456720 -0.000001 -0.000000 9.329350 27.213900 -2.138330 12.994200 -0.242716 4.980390 -92.579500 6.494660 -68.282800 5.348090 -0.000007 -0.000001 -71.034000 4.314310 -1.165280 24.328600 0.000019 0.000005 31.586700 13.834000 -68.750400 22.291600 -0.000001 0.000005 45.309800 4.475660 17.000400 12.994500 -0.242716 -4.980390 89.212400 2.019730 -68.691800 -5.348130 -0.000001 -0.000004 -68.171000 0.333219 8.634340 -24.328900 0.000322 -0.000009 1.006460 8.417660 -6.850270 -22.291500 -0.000108 -0.000004 29.774400 5.345810 -1.252060 -2.192480 -6.469440 -0.000000 174.044000 5.229700 1.154980 39.081100 -0.000007 -0.000012 -0.002429 0.005936 22.250000 40.985400 -0.000006 -0.000013 6.608830 10.410400 -68.631300 11.754300 -0.000000 0.000003 0.462604 0.778570 -12.036300 -2.192510 6.469440 -0.000001 176.562000 -3.991160 156.667000 -39.081100 -0.002282 -0.040193 0.009726 -0.005416 50.105300 -40.985400 0.000008 0.000006 -5.184660 -18.276500 -62.515200 -11.754300 -0.000006 -0.000006 -0.002462 0.202022 -8.376500
0.000000 0.000000 0.000000 0.000000 0.000000 -0.000000 113.765000 91.493600 226.074000 -77.840000 59.941600 172.027000 15.735700 0.000005 -0.000001 64.738400 84.880600 -61.553300 8.984550 -0.406207 -0.000000 1.633190 -4.537390 6.432070 16.377300 -0.000001 -0.000001 14.603800 15.856800 -1.890660 6.456720 -0.000001 -0.000000 8.889130 26.521100 -1.927860 12.994200 -0.242716 4.980390 -92.380200 6.157950 -68.819000 5.348090 -0.000007 -0.000001 -70.466400 4.044350 -4.092650 24.328600 0.000019 0.000005 32.840300 12.266900 -71.779800 22.291600 -0.000001 0.000005 45.752800 4.428350 17.768800 12.994500 -0.242716 -4.980390 89.301200 1.759680 -68.336100 -5.348130 -0.000001 -0.000004 -67.369400 -1.700010 11.908100 -24.328900 0.000322 -0.000009 1.084560 8.974810 -6.925800 -22.291500 -0.000108 -0.000004 29.300900 5.341300 -1.117840 -2.192480 -6.469440 -0.000000 174.489000 8.512630 3.629850 39.081100 -0.000007 -0.000012 -0.004712 0.012519 20.627400 40.985400 -0.000006 -0.000013 7.020550 11.350700 -68.102300 11.754300 -0.000000 0.000003 0.002420 0.097605 -12.618600 -2.192510 6.469440 -0.000001 175.961000 -6.163210 157.520000 -39.081100 -0.002282 -0.040193 0.006720 -0.004411 37.918600 -40.985400 0.000008 0.000006 -4.982930 -20.748100 -65.471900 -11.754300 -0.000006 -0.000006 -0.003025 0.208549 -8.110930
0.000000 0.000000 0.000000 0.000000 0.000000 -0.000000 116.759000 91.480800 224.922000 -79.289100 56.296600 172.926000 15.735700 0.000005 -0.000001 60.676800 84.856000 -57.615200 8.984550 -0.406207 -0.000000 1.356630 -5.207120 6.182970 16.377300 -0.000001 -0.000001 13.379800 15.271000 -1.280940 6.456720 -0.000001 -0.000000 8.168120 25.890000 -1.678750 12.994200 -0.242716 4.980390 -92.113300 5.600260 -69.286800 5.348090 -0.000007 -0.000001 -70.377900 3.640950 -6.779390 24.328600 0.000019 0.000005 33.708500 11.432900 -73.452000 22.291600 -0.000001 0.000005 46.039600 4.406360 18.121700 12.994500 -0.242716 -4.980390 89.446200 1.367030 -67.945500 -5.348130 -0.000001 -0.000004 -66.992500 -2.753230 14.642700 -24.328900 0.000322 -0.000009 1.226840 9.711380 -7.241370 -22.291500 -0.000108 -0.000004 28.769100 5.339060 -1.051590 -2.192480 -6.469440 -0.000000 174.710000 10.416800 5.709320 39.081100 -0.000007 -0.000012 -0.003757 0.010380 19.894300 40.985400 -0.000006 -0.000013 7.238150 12.969700 -67.794200 11.754300 -0.000000 0.000003 0.002428 0.070920 -13.700400 -2.192510 6.469440 -0.000001 174.504000 -8.445540 158.790000 -39.081100 -0.002282 -0.040193 0.009981 -0.013759 25.864600 -40.985400 0.000008 0.000006 -5.508480 -17.464100 -67.046300 -11.754300 -0.000006 -0.000006 -0.003616 0.215053 -7.846190
0.000000 0.000000 0.000000 0.000000 0.000000 -0.000000 119.898000 91.246100 223.642000 -80.518300 53.316900 173.485000 15.735700 0.000005 -0.000001 57.524600 84.876600 -54.662300 8.984550 -0.406207 -0.000000 1.032990 -5.667780 5.774910 16.377300 -0.000001 -0.000001 12.092200 14.794300 -0.632815 6.456720 -0.000001 -0.000000 7.281560 25.441400 -1.399830 12.994200 -0.242716 4.980390 -91.955900 5.328430 -69.809500 5.348090 -0.000007 -0.000001 -70.203800 3.013500 -8.920380 24.328600 0.000019 0.000005 33.658400 10.780000 -74.310300 22.291600 -0.000001 0.000005 46.239700 4.377130 18.586500 12.994500 -0.242716 -4.980390 89.564200 1.065850 -67.762400 -5.348130 -0.000001 -0.000004 -66.838500 -3.190550 16.330700 -24.328900 0.000322 -0.000009 1.320430 10.656400 -7.110750 -22.291500 -0.000108 -0.000004 28.330000 5.335980 -0.960834 -2.192480 -6.469440 -0.000000 175.326000 10.674400 7.381490 39.081100 -0.000007 -0.000012 -0.001950 0.005435 19.734200 40.985400 -0.000006 -0.000013 7.773810 15.855700 -68.023100 11.754300 -0.000000 0.000003 0.001652 0.035231 -15.147600 -2.192510 6.469440 -0.000001 173.176000 -10.098400 159.590000 -39.081100 -0.002282 -0.040193 0.006308 -0.010571 15.739000 -40.985400 0.000008 0.000006 -7.001910 -12.018400 -67.541200 -11.754300 -0.000006 -0.000006 -0.003720 0.216162 -7.801050
0.000000 0.000000 0.000000 0.000000 0.000000 -0.000000 123.313000 90.865500 222.177000 -80.787000 50.799800 173.451000 15.735700 0.000005 -0.000001 55.486000 84.824400 -52.635700 8.984550 -0.406207 -0.000000 0.926717 -6.032890 5.749200 16.377300 -0.000001 -0.000001 10.741000 14.397700 -0.120574 6.456720 -0.000001 -0.000000 6.495190 25.142600 -1.254140 12.994200 -0.242716 4.980390 -92.004600 5.582500 -70.211600 5.348090 -0.000007 -0.000001 -69.882200 2.492930 -10.394500 24.328600 0.000019 0.000005 33.948300 10.777000 -74.476800 22.291600 -0.000001 0.000005 46.793700 4.356580 18.910600 12.994500 -0.242716 -4.980390 89.610700 0.956985 -67.865300 -5.348130 -0.000001 -0.000004 -66.601700 -3.286600 16.802000 -24.328900 0.000322 -0.000009 1.298260 11.517300 -6.480700 -22.291500 -0.000108 -0.000004 28.412200 5.331800 -0.838099 -2.192480 -6.469440 -0.000000 176.539000 10.276300 9.165250 39.081100 -0.000007 -0.000012 -0.000783 0.002146 20.037400 40.985400 -0.000006 -0.000013 8.532050 18.594200 -68.346800 11.754300 -0.000000 0.000003 -0.000821 -0.012840 -17.099100 -2.192510 6.469440 -0.000001 173.671000 -9.228690 160.076000 -39.081100 -0.002282 -0.040193 0.003046 0.001912 8.764690 -40.985400 0.000008 0.000006 -8.774340 -6.793260 -66.852900 -11.754300 -0.000006 -0.000006 -0.004061 0.219743 -7.655210
0.000000 0.000000 0.000000 0.000000 0.000000 -0.000000 127.114000 90.345600 220.450000 -80.733900 48.229700 173.393000 15.735700 0.000005 -0.000001 53.452800 84.716600 -50.512500 8.984550 -0.406207 -0.000000 0.903671 -6.465980 5.931900 16.377300 -0.000001 -0.000001 9.469190 14.071000 0.332176 6.456720 -0.000001 -0.000000 5.811870 24.779100 -1.212770 12.994200 -0.242716 4.980390 -92.065500 5.914330 -70.709900 5.348090 -0.000007 -0.000001 -70.057600 2.052440 -11.042300 24.328600 0.000019 0.000005 34.719400 11.647500 -73.756300 22.291600 -0.000001 0.000005 47.355600 4.341600 19.145400 12.994500 -0.242716 -4.980390 89.578400 1.044420 -68.016600 -5.348130 -0.000001 -0.000004 -66.197600 -3.264700 16.307100 -24.328900 0.000322 -0.000009 1.166470 11.937300 -5.627060 -22.291500 -0.000108 -0.000004 28.965000 5.322620 -0.571493 -2.192480 -6.469440 -0.000000 177.953000 9.961330 11.136500 39.081100 -0.000007 -0.000012 -0.001519 0.004003 20.770100 40.985400 -0.000006 -0.000013 9.697050 20.570500 -68.212100 11.754300 -0.000000 0.000003 -0.009324 -0.098526 -20.590300 -2.192510 6.469440 -0.000001 176.464000 -3.918990 160.599000 -39.081100 -0.002282 -0.040193 0.003216 0.001378 5.401590 -40.985400 0.000008 0.000006 -12.033700 -1.414250 -66.448300 -11.754300 -0.000006 -0.000006 -0.004352 0.222725 -7.533740
